<svg xmlns="http://www.w3.org/2000/svg" xmlns:xlink="http://www.w3.org/1999/xlink" version="1.1" x="0px" y="0px" viewBox="0 0 400 400" enable-background="new 0 0 400 400" xml:space="preserve"><line fill-rule="evenodd" clip-rule="evenodd" fill="none" stroke="#000000" stroke-width="25" stroke-linecap="round" stroke-miterlimit="10" x1="225" y1="355.5" x2="162" y2="355.5"/><g><path d="M225,310h-63c-6.904,0-12.5,5.597-12.5,12.5S155.096,335,162,335h63c6.903,0,12.5-5.597,12.5-12.5S231.903,310,225,310z"/><path d="M100.351,105.896l-29.31-29.31c-4.877-4.876-12.783-4.876-17.66,0c-4.876,4.877-4.876,12.783,0,17.66l29.31,29.31   c2.438,2.438,5.634,3.657,8.83,3.657s6.392-1.219,8.83-3.657C105.228,118.679,105.228,110.773,100.351,105.896z"/><path d="M195.5,80.5c6.903,0,12.5-5.596,12.5-12.5V25c0-6.904-5.597-12.5-12.5-12.5c-6.904,0-12.5,5.596-12.5,12.5v43   C183,74.904,188.596,80.5,195.5,80.5z"/><path d="M77,213H40c-6.351,0-11.5,5.148-11.5,11.5S33.649,236,40,236h37c6.351,0,11.5-5.148,11.5-11.5S83.351,213,77,213z"/><path d="M359,213h-37c-6.352,0-11.5,5.148-11.5,11.5S315.648,236,322,236h37c6.352,0,11.5-5.148,11.5-11.5S365.352,213,359,213z"/><path d="M331.044,70.458c-4.877-4.877-12.783-4.877-17.66,0l-23.438,23.438c-4.877,4.876-4.876,12.783,0,17.66   c2.438,2.438,5.634,3.657,8.83,3.657c3.195,0,6.392-1.219,8.83-3.658l23.438-23.438C335.921,83.241,335.92,75.334,331.044,70.458z"/><path d="M195.246,91.791c-52.537,0-95.279,42.742-95.279,95.279c0,30.174,14.525,58.878,38.854,76.783   c0.157,0.115,0.319,0.218,0.48,0.324l-0.231,24.204c-0.032,3.336,1.271,6.546,3.619,8.916c2.348,2.37,5.545,3.703,8.881,3.703H233   c6.903,0,12.5-5.597,12.5-12.5S239.903,276,233,276h-68.812l0.16-16.588c0.058-6.137-4.318-11.16-10.138-12.203   c-0.547-0.632-1.164-1.218-1.865-1.733c-18.511-13.622-29.562-35.456-29.562-58.406c0-39.956,32.506-72.462,72.462-72.462   c39.957,0,72.463,32.506,72.463,72.462c0,12.656-3.308,25.108-9.565,36.011c-3.137,5.464-1.249,12.437,4.216,15.573   c5.463,3.135,12.438,1.248,15.573-4.216c8.238-14.354,12.593-30.733,12.593-47.369C290.525,134.533,247.783,91.791,195.246,91.791z   "/><path d="M177.782,156.27c5.497-4.164,6.578-11.997,2.413-17.494c-4.164-5.497-11.996-6.579-17.494-2.413   c-15.372,11.645-24.188,29.373-24.188,48.638c0,17.268,7.367,33.798,20.211,45.353c2.386,2.146,5.372,3.203,8.348,3.203   c3.418,0,6.822-1.395,9.288-4.136c4.612-5.128,4.195-13.023-0.932-17.636c-7.588-6.825-11.939-16.588-11.939-26.784   C163.487,173.623,168.698,163.151,177.782,156.27z"/></g></svg>