<svg xmlns="http://www.w3.org/2000/svg" xmlns:xlink="http://www.w3.org/1999/xlink" version="1.1" x="0px" y="0px" viewBox="0 0 100 100" enable-background="new 0 0 100 100" xml:space="preserve"><path fill="#000000" d="M35.388,77.114c-0.813,0-1.609-0.395-2.089-1.124C31.141,72.718,30,68.917,30,65  c0-7.55,3.05-12.47,6.735-17.67c0.799-1.126,2.359-1.394,3.485-0.595c1.126,0.798,1.393,2.359,0.595,3.485  C37.52,54.87,35,58.911,35,65c0,2.937,0.855,5.785,2.473,8.238c0.76,1.152,0.442,2.703-0.71,3.463  C36.338,76.98,35.86,77.114,35.388,77.114z"/><path fill="#000000" d="M50,16.733c4.397,8.35,9.042,14.812,12.979,20.288C69.958,46.729,75,53.743,75,65c0,13.785-11.215,25-25,25  S25,78.785,25,65c0-11.257,5.042-18.271,12.021-27.979C40.958,31.544,45.603,25.083,50,16.733 M50,5C37.5,35,20,42.5,20,65  c0,16.568,13.431,30,30,30c16.568,0,30-13.432,30-30C80,42.5,62.5,35,50,5L50,5z"/></svg>